<?xml version="1.0" encoding="utf-8"?>
<!-- Generator: Adobe Illustrator 21.1.0, SVG Export Plug-In . SVG Version: 6.00 Build 0)  -->
<svg version="1.1" id="Calque_1" xmlns="http://www.w3.org/2000/svg" xmlns:xlink="http://www.w3.org/1999/xlink" x="0px" y="0px"
	 viewBox="0 0 432 432" style="enable-background:new 0 0 432 432;" xml:space="preserve">
<style type="text/css">
	.st0{fill:#6E3C3F;}
	.st1{fill:#E3635C;}
	.st2{fill:#343434;}
	.st3{fill:#B1C369;}
	.st4{fill:#A490C4;}
	.st5{fill:#A2C1DB;}
	.st6{fill:#AFB67B;}
	.st7{fill:#4F4747;}
	.st8{fill:#AA6555;}
	.st9{fill:#93C6E3;}
	.st10{fill:#9C3A47;}
	.st11{fill:#52B5C3;}
	.st12{fill:#4B6C2A;}
	.st13{fill:#F4A38D;}
	.st14{fill:#6A8E2D;}
	.st15{fill:#EE7A9F;}
	.st16{fill:#F7DA6A;}
	.st17{fill:#E2991A;}
	.st18{fill:#A7B7BE;}
	.st19{fill:#E8D8CA;}
	.st20{fill:#A1A499;}
	.st21{fill:#C42725;}
	.st22{fill:#DBDC50;}
	.st23{fill:#020203;}
	.st24{fill:#92AA3C;}
	.st25{fill:#DFB87F;}
	.st26{fill:#7E4E1C;}
	.st27{fill:#BBCC53;}
	.st28{fill:#BA5C78;}
	.st29{fill:#85924F;}
	.st30{fill:#7C1142;}
	.st31{fill:#3B322E;}
	.st32{fill:#3B6C51;}
	.st33{fill:#C1292E;}
	.st34{fill:#CDCCCC;}
	.st35{fill:#886649;}
	.st36{fill:#F9B03D;}
	.st37{fill:#7D8C5B;}
	.st38{fill:#0D341E;}
	.st39{fill:#4D8F53;}
	.st40{fill:#1B1B1B;}
	.st41{fill:#F39323;}
	.st42{fill:#E7E6E6;}
	.st43{fill:#9A908B;}
	.st44{fill:#548981;}
	.st45{fill:#89525A;}
	.st46{fill:#AB9AB1;}
	.st47{fill:#5E676E;}
	.st48{fill:#DDDBCA;}
	.st49{fill:#56463E;}
	.st50{fill:#457885;}
	.st51{fill:#FFFFFF;}
	.st52{fill:#E69678;}
	.st53{fill:#A5AB9B;}
	.st54{fill:#855354;}
	.st55{fill:#DE8F6E;}
	.st56{fill:#C19D63;}
	.st57{fill:#837F62;}
	.st58{fill:#7D8769;}
	.st59{fill:#39466A;}
	.st60{fill:#4E4D4D;}
	.st61{fill:#673E44;}
	.st62{fill:#CEB283;}
	.st63{fill:#8890A4;}
	.st64{fill:#99B8B3;}
	.st65{fill:#A0747A;}
	.st66{fill:#BB839E;}
	.st67{fill:#E5DA9B;}
	.st68{fill:#BA9BC9;}
	.st69{fill:#8CACB5;}
	.st70{fill:#746458;}
	.st71{fill:#34354B;}
	.st72{fill:#6A8188;}
	.st73{fill:#B4B4B4;}
	.st74{fill:#97CB9E;}
	.st75{fill:#EE7896;}
	.st76{fill:#785F63;}
	.st77{fill:#E4A87C;}
	.st78{fill:#98D5E8;}
	.st79{fill:#CB6083;}
	.st80{fill:#9A9999;}
	.st81{fill:#C49A6C;}
	.st82{fill:#EC96AB;}
	.st83{fill:#ED87AB;}
	.st84{fill:#E2B471;}
	.st85{fill:#59B465;}
	.st86{fill:#4C996E;}
	.st87{fill:#A84F6B;}
	.st88{fill:#6BC4CD;}
	.st89{fill:#D6809C;}
	.st90{fill:#9DD0B3;}
	.st91{fill:#F3AA9A;}
	.st92{fill:#F29292;}
	.st93{fill:#BBBBBB;}
	.st94{fill:#5B5242;}
	.st95{fill:#8CCDC6;}
	.st96{fill:#EAC892;}
	.st97{fill:#F4B0CC;}
	.st98{fill:#7A6350;}
	.st99{fill:#9FC64B;}
	.st100{fill:#A68C6D;}
	.st101{fill:#F1D3D4;}
	.st102{fill:#BE8BBE;}
	.st103{fill:#F49523;}
	.st104{fill:#789835;}
	.st105{fill:#8FA369;}
	.st106{fill:#B17081;}
	.st107{fill:#E1B63D;}
	.st108{fill:#B05274;}
	.st109{fill:#CA9256;}
	.st110{fill:#A9A9AA;}
	.st111{fill:#BE202E;}
	.st112{fill-rule:evenodd;clip-rule:evenodd;fill:#A9A9AA;}
	.st113{fill:#89657B;}
	.st114{fill:#7F95B7;}
	.st115{fill:#9F9EC6;}
	.st116{fill:#7F6178;}
	.st117{fill:#6D8999;}
	.st118{fill:#A0C07E;}
	.st119{fill:#AA779F;}
	.st120{fill:#FBC063;}
	.st121{fill:#80A0C2;}
	.st122{fill:#CFAC75;}
	.st123{fill:#CD94C2;}
	.st124{fill:#AAB6DE;}
	.st125{fill:#CCAE99;}
	.st126{fill:#86B69F;}
	.st127{fill:#555D57;}
	.st128{fill:#86C1BB;}
	.st129{fill:#CA856C;}
	.st130{fill:#A4AA6D;}
	.st131{fill:#EAB978;}
	.st132{fill:#C091A7;}
	.st133{fill:#7E9DAD;}
	.st134{fill:#E5B1C8;}
	.st135{fill:#B9AEA3;}
	.st136{fill:#627F99;}
	.st137{fill:#E6A9AB;}
	.st138{fill:#913E41;}
	.st139{fill:#B46269;}
	.st140{fill:#C69C6C;}
	.st141{fill:#ED6D78;}
	.st142{fill:#C09047;}
	.st143{fill:#AE6C7B;}
	.st144{fill:#918FB2;}
	.st145{fill:#67816D;}
	.st146{fill:#B3B1A2;}
	.st147{fill:#A23A43;}
	.st148{fill:#6A907C;}
	.st149{fill:#B09294;}
	.st150{fill:#7B484D;}
	.st151{fill:#B78B5E;}
	.st152{fill:#DB7D82;}
	.st153{fill:#781611;}
	.st154{fill:#D38F8F;}
	.st155{fill:#965656;}
	.st156{fill:#9AA4B4;}
	.st157{fill:#754D24;}
	.st158{fill:#C8B7A7;}
	.st159{fill:#B4363B;}
	.st160{fill:#C77272;}
	.st161{fill:#91AF82;}
	.st162{fill:#C69462;}
	.st163{fill:#ED6C5B;}
	.st164{fill:#F3C186;}
	.st165{fill:#F3957D;}
	.st166{fill:#D1BBBC;}
</style>
<g>
	<g>
		<g>
			<g>
				<path class="st2" d="M63.4,112.9c0.4-0.3,0.5-0.7,0.7-1c1.6-3.1,3.1-6.1,4.7-9.2c0.2-0.3,0.3-0.6,0.5-0.8c0.5-0.6,1.3-0.8,2-0.4
					c0.7,0.4,1,1.1,0.8,1.9c-0.1,0.3-0.2,0.5-0.4,0.8c-1.9,3.6-3.7,7.3-5.6,10.9c-0.8,1.4-1,2.8-1,4.4c0,3.8,0,7.6,0.1,11.4
					c0,1.1,0.2,2.1,0.2,3.2c0,1.1-0.9,1.7-1.9,1.5c-0.7-0.2-1.1-0.7-1.2-1.5c-0.2-2.3-0.4-4.6-0.4-6.9c0-3.2,0-6.4,0-9.5
					c0-0.8-0.2-1.5-0.7-2.2c-1.2-1.7-2.3-3.5-3.3-5.3c-1.1-2-2.2-3.9-3.4-5.8c-0.2-0.2-0.3-0.5-0.4-0.8c-0.2-0.7,0-1.5,0.6-1.8
					c0.6-0.4,1.5-0.3,2,0.3c0.4,0.5,0.7,1,1,1.5c1.3,2.3,2.6,4.6,4,6.8C62.2,111.2,62.8,112,63.4,112.9z"/>
				<path class="st2" d="M85.9,106.1c0.6-0.6,0.9-1.3,1.3-1.9c0.5-0.7,1.3-0.9,2-0.6c0.7,0.4,1,1.1,0.8,2c-0.1,0.3-0.2,0.5-0.4,0.8
					c-0.5,0.8-1,1.6-1.7,2.3c-0.5,0.5-0.6,0.9-0.4,1.5c0.6,2.7,0.5,5.4,0.2,8.1c-0.2,1.5-0.4,2.9-0.8,4.3c-0.4,1.5-1,2.9-2,4.1
					c-1.1,1.3-2.4,2.3-4.2,2.2c-1-0.1-1.8-0.4-2.6-1c-0.7-0.5-1.3-1.2-1.8-1.9c-3.1-4.5-4.2-9.5-3.2-14.9c0.3-1.9,1.1-3.8,2.3-5.3
					c1.5-1.8,3.5-2.6,5.9-2.2C83.2,103.8,84.7,104.6,85.9,106.1z M76.3,112c-0.1,0.2-0.1,0.4-0.1,0.5c0,0.2-0.1,0.4-0.1,0.5
					c-0.2,3.9,0.7,7.5,2.8,10.8c0.3,0.5,0.7,0.9,1.1,1.3c0.7,0.6,1.3,0.6,2,0c0.5-0.5,0.9-1.1,1.2-1.8c0.7-1.4,1-3,1.2-4.5
					c0.3-2.4,0.6-4.9,0-7.4c-1.3,0.5-2.6,1-4,1.2C79.1,112.8,77.7,112.6,76.3,112z M83.4,108.3c-1.3-2.2-4.5-2.3-5.6-0.2
					c-0.4,0.7-0.3,1,0.5,1.2C80.2,109.9,81.8,109.2,83.4,108.3z"/>
				<path class="st2" d="M90.9,112.6c0.1-1.4,0.1-3,0.2-4.5c0-0.3,0.1-0.7,0.2-1c0.3-0.7,1-1.2,1.7-1c0.7,0.1,1.3,0.7,1.3,1.5
					c0,0.4,0,0.7-0.1,1.1c-0.3,3.8-0.3,7.7,0.5,11.5c0.3,1.4,0.7,2.7,1.3,3.9c0.4,0.8,0.8,1.5,1.5,2c1,1,1.7,0.9,2.7-0.2
					c0.6-0.8,1-1.7,1.4-2.6c0.8-2,1.2-4.1,1.5-6.3c0.5-3,0.6-6.1,0.4-9.2c-0.1-1.5-0.3-3.1-0.7-4.5c-0.3-1.1,0.1-1.9,1-2.1
					c0.8-0.2,1.7,0.2,2.1,1.2c0.4,1.1,0.5,2.4,0.7,3.5c0.3,2.8,0.3,5.6,0,8.4c-0.3,2.9-0.7,5.8-1.6,8.6c-0.3,1.2-0.8,2.3-1.3,3.4
					c-0.5,1-1.2,1.9-2.1,2.6c-1.6,1.2-3.5,1.3-5.2,0.3c-1.1-0.7-1.9-1.6-2.6-2.7c-1.3-2-1.9-4.2-2.4-6.5
					C91.1,117.7,91,115.2,90.9,112.6z"/>
			</g>
			<g>
				<g>
					<path class="st2" d="M115.9,144.1c-1,1.8-2,3.6-3,5.5c-1,1.9-1.9,3.8-2.9,5.7c-0.3,0.6-0.6,1.3-1.1,1.8c-1,1.1-2.3,1.1-3.4,0.1
						c-0.5-0.5-0.9-1.2-1.2-1.8c-1.9-3.6-3.8-7.1-5.5-10.7c-0.1-0.3-0.2-0.7-0.6-0.9c0,1.3,0,2.5,0,3.7c0.1,4.3-0.1,8.6-0.2,12.9
						c-0.1,1.9-0.1,3.9-0.1,5.8c0,1-0.1,1.9-0.2,2.8c-0.1,0.9-0.7,1.5-1.6,1.5c-0.8,0-1.5-0.6-1.5-1.5c0-1.1,0-2.1,0.1-3.2
						c0.2-6.9,0.6-13.8,0.3-20.7c-0.1-2-0.2-3.9-0.2-5.9c0-0.5,0-1,0.1-1.5c0.3-1.5,1.9-2.1,3.1-1c0.6,0.6,1,1.3,1.4,2.1
						c1,2.1,2,4.2,3.1,6.3c1.4,2.8,2.8,5.5,4.3,8.3c0.1,0.2,0.1,0.3,0.4,0.4c0.3-0.1,0.3-0.4,0.5-0.7c2.4-4.9,5.1-9.6,7.7-14.4
						c0.2-0.3,0.3-0.6,0.5-0.8c0.5-0.6,1.1-1,1.9-0.8c0.8,0.2,1.3,0.8,1.4,1.6c0.2,1.2,0.2,2.5,0.1,3.7c-0.1,2.6-0.2,5.3-0.1,7.9
						c0.1,3.5,0.3,7.1,0.6,10.6c0,0.3,0,0.5,0,0.8c-0.1,0.8-0.6,1.3-1.3,1.4c-0.8,0.1-1.5-0.3-1.8-1c-0.1-0.3-0.1-0.6-0.2-0.9
						c-0.4-5.5-0.7-11.1-0.6-16.7c0-0.1,0-0.2-0.1-0.3C116.1,144.2,116,144.1,115.9,144.1z"/>
					<path class="st2" d="M135.5,169.8c0,0.9-0.3,1.4-1,1.7c-0.6,0.3-1.3,0.1-1.8-0.5c-0.4-0.4-0.6-0.8-0.6-1.4
						c-0.3-2.5-0.8-5-1.2-7.5c-0.1-0.5-0.2-0.7-0.8-0.6c-1.7,0.2-3.3,0.3-5,0.5c-0.5,0-0.6,0.4-0.6,0.8c-0.1,0.8-0.2,1.7-0.3,2.5
						c-0.1,0.9-0.2,1.9-0.3,2.8c0,0.1,0,0.2,0,0.3c-0.2,1-0.9,1.6-1.9,1.5c-0.8-0.1-1.4-0.9-1.3-1.9c0.1-1.5,0.3-2.9,0.4-4.4
						c0.4-2.9,0.5-5.8,0.8-8.7c0.6-6,1.6-11.9,3.1-17.8c0.1-0.6,0.3-1.1,0.7-1.6c0.8-1.1,2.1-1.1,3-0.1c0.4,0.5,0.7,1.1,0.9,1.8
						c0.8,2.5,1.3,5,1.7,7.6c1.1,7.1,2.2,14.2,3.3,21.3c0.2,1,0.4,1.9,0.5,2.9C135.4,169.4,135.5,169.7,135.5,169.8z M127.5,141.7
						c-1.2,5.5-1.9,10.9-2.4,16.4c-0.1,0.6,0.1,0.8,0.7,0.7c1.1-0.1,2.3-0.2,3.4-0.3c1.2-0.1,1.2-0.2,1-1.4
						c-0.1-0.4-0.1-0.7-0.2-1.1c-0.7-4.5-1.3-9.1-2.2-13.6C127.8,142.2,127.8,141.9,127.5,141.7z"/>
					<path class="st2" d="M141.8,156.5c0.9,0.7,1.7,1.3,2.4,1.9c1.8,1.4,3.6,2.7,5.4,4.1c0.3,0.2,0.6,0.4,0.8,0.7
						c0.6,0.6,0.6,1.4,0.2,2c-0.5,0.6-1.3,0.8-2.1,0.5c-0.3-0.2-0.5-0.4-0.8-0.6c-2.3-1.8-4.7-3.5-7-5.3c-0.1-0.1-0.3-0.3-0.6-0.2
						c0.2,1.6,0.4,3.3,0.6,4.9c0.2,1.3,0.4,2.6,0.5,3.9c0.1,1.1-0.4,1.8-1.3,2c-1,0.1-1.9-0.5-2-1.6c-0.3-3.5-0.9-7-1.1-10.6
						c-0.4-6.1-0.7-12.1-0.6-18.2c0-1.6,0.1-3.2,0.1-4.8c0-0.3,0-0.5,0.1-0.8c0.2-0.7,0.9-1.2,1.6-1.1c0.7,0,1.3,0.6,1.4,1.3
						c0.1,0.3,0,0.6,0,0.9c-0.1,5.2-0.1,10.3,0,15.5c0,0.9,0.1,1.7,0.2,2.7c0.4-0.1,0.5-0.4,0.7-0.6c3.7-4,6.7-8.5,9.2-13.3
						c0.1-0.2,0.2-0.3,0.3-0.5c0.5-0.7,1.3-1,2-0.6c0.7,0.3,1.1,1.1,0.8,2c-0.2,0.6-0.4,1.1-0.7,1.6c-2.3,4.2-4.8,8.2-8,11.8
						C143.3,154.8,142.6,155.6,141.8,156.5z"/>
					<path class="st2" d="M157.4,161.6c0,1.4,0.3,2.6,0.5,3.8c0.1,0.5,0.4,0.6,0.8,0.6c0.9-0.1,1.8-0.1,2.7-0.4c1-0.4,2,0,2.3,1
						c0.3,0.9-0.2,1.8-1.2,2.1c-1.7,0.5-3.5,0.6-5.2,0.4c-1.2-0.1-2-0.9-2.3-2.1c-0.5-1.6-0.7-3.2-0.8-4.9
						c-0.6-6.5-0.5-13.1-0.3-19.6c0.1-2,0.2-4,0.3-6c0-0.4,0.1-0.9,0.2-1.3c0.2-0.8,0.6-1.2,1.4-1.4c0.5-0.1,1-0.2,1.5-0.2
						c2,0.1,4.1,0.3,6.1,0.7c1,0.2,1.6,0.9,1.4,1.9c-0.2,0.9-1,1.4-2,1.3c-1.5-0.3-3-0.5-4.5-0.5c-1,0-1,0-1,0.9
						c-0.1,1.5-0.2,3-0.2,4.5c-0.1,5-0.1,9.9,0,14.9c0,1.4-0.1,1.3,1.3,1.3c0.5,0,1.1,0,1.6,0c1,0.1,1.7,0.7,1.7,1.6
						c0,0.9-0.7,1.5-1.8,1.6C159.1,161.7,158.3,161.6,157.4,161.6z"/>
				</g>
				<g>
					<path class="st2" d="M198,144.1c-1,1.8-2,3.6-3,5.5c-1,1.9-1.9,3.8-2.9,5.7c-0.3,0.6-0.6,1.3-1.1,1.8c-1,1.1-2.3,1.1-3.4,0.1
						c-0.5-0.5-0.9-1.2-1.2-1.8c-1.9-3.6-3.8-7.1-5.5-10.7c-0.1-0.3-0.2-0.7-0.6-0.9c0,1.3,0,2.5,0,3.7c0.1,4.3-0.1,8.6-0.2,12.9
						c-0.1,1.9-0.1,3.9-0.1,5.8c0,1-0.1,1.9-0.2,2.8c-0.1,0.9-0.7,1.5-1.6,1.5c-0.8,0-1.5-0.6-1.5-1.5c0-1.1,0-2.1,0.1-3.2
						c0.2-6.9,0.6-13.8,0.3-20.7c-0.1-2-0.2-3.9-0.2-5.9c0-0.5,0-1,0.1-1.5c0.3-1.5,1.9-2.1,3.1-1c0.6,0.6,1,1.3,1.4,2.1
						c1,2.1,2,4.2,3.1,6.3c1.4,2.8,2.8,5.5,4.3,8.3c0.1,0.2,0.1,0.3,0.4,0.4c0.3-0.1,0.3-0.4,0.5-0.7c2.4-4.9,5.1-9.6,7.7-14.4
						c0.2-0.3,0.3-0.6,0.5-0.8c0.5-0.6,1.1-1,1.9-0.8c0.8,0.2,1.3,0.8,1.4,1.6c0.2,1.2,0.2,2.5,0.1,3.7c-0.1,2.6-0.2,5.3-0.1,7.9
						c0.1,3.5,0.3,7.1,0.6,10.6c0,0.3,0,0.5,0,0.8c-0.1,0.8-0.6,1.3-1.3,1.4c-0.8,0.1-1.5-0.3-1.8-1c-0.1-0.3-0.1-0.6-0.2-0.9
						c-0.4-5.5-0.7-11.1-0.6-16.7c0-0.1,0-0.2-0.1-0.3C198.2,144.2,198.1,144.1,198,144.1z"/>
					<path class="st2" d="M209.1,161.6c0,1.4,0.3,2.6,0.5,3.8c0.1,0.5,0.4,0.6,0.8,0.6c0.9-0.1,1.8-0.1,2.7-0.4c1-0.4,2,0,2.3,1
						c0.3,0.9-0.2,1.8-1.2,2.1c-1.7,0.5-3.5,0.6-5.2,0.4c-1.2-0.1-2-0.9-2.3-2.1c-0.5-1.6-0.7-3.2-0.8-4.9
						c-0.6-6.5-0.5-13.1-0.3-19.6c0.1-2,0.2-4,0.3-6c0-0.4,0.1-0.9,0.2-1.3c0.2-0.8,0.6-1.2,1.4-1.4c0.5-0.1,1-0.2,1.5-0.2
						c2,0.1,4.1,0.3,6.1,0.7c1,0.2,1.6,0.9,1.4,1.9c-0.2,0.9-1,1.4-2,1.3c-1.5-0.3-3-0.5-4.5-0.5c-1,0-1,0-1,0.9
						c-0.1,1.5-0.2,3-0.2,4.5c-0.1,5-0.1,9.9,0,14.9c0,1.4-0.1,1.3,1.3,1.3c0.5,0,1.1,0,1.6,0c1,0.1,1.7,0.7,1.7,1.6
						c0,0.9-0.7,1.5-1.8,1.6C210.8,161.7,210,161.6,209.1,161.6z"/>
				</g>
			</g>
		</g>
		<g>
			<path class="st41" d="M229.5,142.3c-0.1-4.8-0.1-9.6,0.4-14.4c0.1-0.9,0.2-1.8,0.4-2.7c0.6-2.3,2.1-3.6,4.4-3.9
				c1.5-0.3,3.1-0.4,4.7-0.3c3.1,0.1,6.3,0.2,9.4,0.2c0.9,0,1.8,0,2.6,0.6c1.1,0.8,1.6,2.1,1.3,3.4c-0.3,1.3-1.5,2.3-2.9,2.4
				c-2.5,0.1-4.9,0-7.4,0c-1.6,0-3.1,0-4.7,0c-0.8,0-1.2,0.3-1.3,1.1c-0.1,1-0.2,2.1-0.2,3.1c-0.1,7.6-0.2,15.3,0.4,22.9
				c0.1,1.6,0.1,1.6,1.6,1.6c1.4,0,2.8,0,4.3,0c2.2,0.1,3.6,1.4,3.6,3.3s-1.4,3.2-3.5,3.3c-1.3,0.1-2.7,0-4,0
				c-1.4,0-1.5,0.1-1.4,1.6c0.3,3.8,0.7,7.6,1.1,11.4c0.4,3.9,1,7.9,1.9,11.7c0.5,2.1-0.6,3.8-2.4,4.2c-1.9,0.4-3.6-0.7-4.1-2.9
				c-0.8-3.9-1.4-7.8-1.9-11.7C230.5,165.6,229.8,154,229.5,142.3z"/>
			<path class="st41" d="M254.6,182.2c-0.1-5.6,0.4-11.2,0.6-16.8c0.4-10.3,1.1-20.6,1.7-30.9c0.3-5.2,0.6-10.3,0.8-15.5
				c0.1-2.2,1.3-3.5,3.3-3.5c1.9,0,3.2,1.4,3.2,3.6c0,1.9,0,3.7-0.2,5.6c-0.6,7.9-0.9,15.8-1.3,23.8c-0.6,10.8-1.1,21.5-1.5,32.3
				c-0.1,2.4,0,4.8-0.1,7.2c0,1.1,0.4,1.5,1.5,1.4c4.4-0.3,8.8,0.1,13.2-0.6c2.4-0.4,4,0.8,4.3,2.9c0.2,2.1-1.3,3.8-3.7,3.9
				c-4.9,0.2-9.7,0.3-14.6,0.4c-0.7,0-1.4,0-2-0.1c-3-0.4-4.7-2.2-5-5.1C254.4,187.9,254.5,185,254.6,182.2z"/>
			<path class="st41" d="M300.7,147.6c0.9-0.7,1.1-1.4,1.4-2.1c3.2-6.3,6.3-12.6,9.6-18.8c0.3-0.6,0.6-1.2,1-1.7
				c1.1-1.3,2.6-1.6,4-0.9c1.3,0.7,2,2.3,1.6,3.8c-0.2,0.6-0.5,1.1-0.8,1.6c-4,7.4-7.5,15-11.5,22.3c-1.6,2.9-2.1,5.7-2.1,8.9
				c-0.1,7.8,0,15.6,0.2,23.4c0.1,2.2,0.4,4.3,0.4,6.5c0,2.2-1.9,3.5-4,3.1c-1.4-0.3-2.3-1.4-2.5-3.1c-0.4-4.7-0.7-9.4-0.8-14.1
				c-0.1-6.5,0-13,0-19.5c0-1.7-0.4-3.2-1.4-4.6c-2.5-3.5-4.6-7.2-6.7-10.9c-2.2-4-4.5-7.9-6.9-11.8c-0.3-0.5-0.6-1-0.8-1.6
				c-0.5-1.5,0.1-3,1.3-3.7c1.3-0.8,3-0.6,4.1,0.6c0.8,1,1.5,2.1,2.1,3.1c2.7,4.6,5.4,9.3,8.1,14
				C298.4,143.9,299.5,145.7,300.7,147.6z"/>
		</g>
	</g>
	<g>
		<path class="st32" d="M287.7,287.3c0.1,0.5,0.3,0.9,0.4,1.4c1.4,4.6,2.7,9.1,4.1,13.7c0.2,0.6,0.4,1.2,0.7,1.8
			c0.7,1.3,1.9,1.6,3,0.6c0.6-0.5,1-1,1.4-1.6c0.8-1.2,1.5-2.5,2.2-3.7c3.2-6.2,5.5-12.7,7.6-19.3c0.3-1.1,0.7-2.1,1-3.2
			c0.1,0,0.2,0,0.3,0c0.1,1.5,0.3,3,0.3,4.5c0.3,7.4-1.1,14.5-3.1,21.6c-0.4,1.3-0.7,2.5-1.1,3.8c-0.1,0.4-0.2,0.9-0.2,1.3
			c0,1.5,1.1,2.5,2.6,2.3c1.3-0.1,2.5-0.6,3.5-1.4c1.8-1.4,3.6-2.9,5.4-4.3c0.4-0.4,0.9-0.8,1.4-1.1c-0.6,3.1-1.6,6-3.6,8.5
			c-1.6,2-3.5,3.7-5.6,5.1c-2.8,1.9-5.6,3.6-8.5,5.4c-2.6,1.7-5.3,1.7-8,0.1c-2.7-1.6-5.4-3.3-8-5.2c-3.3-2.4-5.5-5.8-7.3-9.8
			c0.5,0.2,0.8,0.3,1.1,0.5c2,1.1,3.9,2.3,5.9,3.4c0.3,0.2,0.6,0.4,1,0.5c1.3,0.6,2.4,0,2.6-1.4c0.1-0.5,0-1,0-1.5
			c-0.5-4.1-0.9-8.3-0.5-12.5c0.3-2.9,0.6-5.9,1-8.8c0-0.2,0.1-0.5,0.2-0.7C287.6,287.3,287.7,287.3,287.7,287.3z"/>
		<g>
			<path class="st41" d="M225.3,311.8c-1,0.8-2,0.9-2.9,0.8c-1.9-0.2-3.2,1.2-2.8,3.3c0.2,1.1,0.7,2.3,1.4,3.2
				c1,1.3,2.4,2.4,3.6,3.6c0.3,0.3,0.7,0.6,1.4,1.2c-1.4-0.1-2.3-0.7-3.2-1.2c-0.9-0.5-1.7-1.2-2.6-1.7c-1.9-1.2-3.6-0.5-4.1,1.7
				c-0.4,1.7-0.1,3.5,0.1,5.2c0.2,1,0.4,1.9,0.5,2.9c-0.8,0.1-1.2-0.3-1.5-0.7c-0.7-0.7-1.4-1.5-1.9-2.4c-1.6-2.6-2.6-5.4-2.7-8.5
				c-0.2-5.6,0-11.2,0.8-16.8c0.4-2.4,1.2-4.8,2-7.1c0.4-1.1,1.2-2,1.8-3c1.7-2.5,3-5.2,3.6-8.3c0.6-2.9,0.1-5.6-1.1-8.3
				c-2-4.3-5-7.6-8.9-10.2c-3.6-2.3-7.5-3.9-11.5-5.1c-3.6-1.1-7.3-2-11-2c-2,0-4,0.1-6,0.5c-2.1,0.4-3.7,1.6-4.8,3.5
				c-1.9,3.3-3.8,6.5-5.7,9.7c-3.2,5.4-7.2,10.2-11.6,14.6c-4.5,4.4-9.1,8.9-14.3,12.4c-0.5,0.3-0.9,0.6-1.6,0.7
				c0.3-0.5,0.5-0.9,0.8-1.4c2.6-3.7,5.1-7.3,7.7-11c4.5-6.5,8.3-13.2,10.8-20.7c0.7-2.2,1.1-4.5,1.6-6.7c0.2-0.8,0.1-1.7-0.1-2.4
				c-0.4-1.6-1.7-2.2-3.2-1.7c-0.5,0.2-1,0.5-1.5,0.8c-5.8,3.8-11.1,8.2-15.7,13.3c-4.7,5.2-7.5,11.4-9.6,18c-1,3.2-1.8,6.4-2.8,9.6
				c-0.1,0.3-0.2,0.7-0.6,1c-0.1-0.8-0.2-1.6-0.3-2.4c-0.5-5.4-0.2-10.8,0.2-16.2c0.3-5.3,1.3-10.5,3.4-15.4c1.2-2.9,2.6-5.7,4-8.5
				c2.6-5.1,5.3-10.1,7.9-15.2c2-3.8,3.7-7.7,4.9-11.8c2.2-6.9,6.1-12.8,11.4-17.7c4.3-3.9,8.8-7.6,13.1-11.5c2.8-2.5,5.6-5,8.4-7.5
				c2.7-2.5,5-5.5,6.8-8.7c0.9-1.6,1.4-3.3,2.1-5c0.2-0.5,0.3-1,0.5-1.8c0.2,0.6,0.4,0.9,0.4,1.2c0.1,0.9,0.2,1.8,0.3,2.8
				c0.1,0.8,0.2,1.6,0.5,2.2c0.5,1.2,1.8,1.4,2.8,0.5c0.3-0.3,0.5-0.8,0.8-1.2c0.9-1.5,1.8-3,2.7-4.5c0.3-0.5,0.7-1,1.3-1.7
				c0.2,1,0,1.7-0.1,2.3c-0.9,6.1-2.8,11.8-6,17.1c-2,3.3-4,6.5-6.1,9.6c-2.4,3.6-4.7,7.3-6.5,11.2c-0.7,1.4-1.3,2.9-1.8,4.4
				c-1.3,3.3-1.2,6.6,0,10c0.5,1.3,0.9,2.5,1.4,3.8c1,2.5,1.4,5.2,1.1,7.9c-0.1,1.3,0.3,2.2,1,3.2c1.9,2.7,4.3,4.8,7,6.6
				c2.8,1.9,5.7,2.3,9,1.4c3.1-0.9,6.2-1.7,9.4-2.4c8.8-2.1,16.2,0.7,22.4,7c2.4,2.4,3.8,5.3,4.9,8.5c0.6,1.6,1,3.2,1.5,4.9
				c1.1,3.6,3.2,6.6,6.3,8.7c2,1.4,4.1,2.7,6.1,4.2c2,1.4,3.9,2.8,5.8,4.3c1.5,1.2,2.8,2.8,3.6,4.6c0.4,0.9,0.7,1.8,0.9,2.8
				c0.3,1.5-0.1,2.7-1.2,3.8c-0.6,0.6-1.2,1.2-1.8,1.7c-3.8,3-4.9,6.9-4.1,11.5c0.2,0.8,0.2,1.6,0.4,2.4c0.5,2.3,0,4.4-1.6,6.2
				c-0.5,0.5-0.9,1.1-1.4,1.8c-0.5-1.9-1-3.5-1.5-5.1c-0.2-0.7-0.5-1.3-0.8-2c-0.3-0.6-0.9-1-1.7-0.9c-0.8,0.1-1.3,0.6-1.5,1.4
				c-0.1,0.7-0.2,1.4-0.3,2.1c-0.2,1.9-0.8,3.7-2.2,5.1c0.1-0.5,0.1-1.1,0.2-1.6c0.4-2.8,0.7-5.6,1.1-8.4c0.1-1,0.3-2-0.7-2.6
				c-1.1-0.7-1.9,0-2.8,0.6c-0.9,0.6-1.9,1.1-3.1,1.7c0-1.1,0.4-1.8,0.8-2.4c1.5-1.9,3-3.7,4.5-5.5c0.9-1.1,1.9-2.2,2.7-3.4
				c1.3-2,1.4-4.1,0.1-6.1c-1.2-1.9-2.5-3.7-3.8-5.4c-1.1-1.5-2.5-1.7-4.1-0.8c-0.9,0.5-1.6,1.1-2.5,1.6c-1.5,0.9-3,1.8-4.5,2.6
				c-2.7,1.3-5.4,1.5-8.2,0.4c-2-0.8-2.9-0.3-3.4,1.9c-0.3,1.1-0.5,2.3-0.7,3.5c-0.3,1.4,0.1,2.7,0.9,3.9c1.2,1.7,2.4,3.3,3.6,5
				C223.8,310.1,224.5,310.9,225.3,311.8z M149.7,241.7c0,0.2,0,0.6,0.1,1c0.4,2.5,1.5,4.5,3.9,5.5c2.5,1,4.9,0.3,6.9-1.3
				c1.8-1.5,2.4-3.6,1.7-5.8c-0.6-2.2-2-3.8-4.1-4.8C154,234.1,149.7,236.8,149.7,241.7z"/>
			<g>
				<g>
					<g>
						<path class="st32" d="M361.9,217.2c-1.1,0-1.8,0-2.6,0c-6.1-0.1-12.1-0.1-18.2-0.3c-5.6-0.2-11.1-0.6-16.6-0.8
							c-7-0.3-13.9-0.1-20.7,1.8c-4.6,1.2-8.8,3.1-12.9,5.5c-6.5,3.9-12.8,8.1-18.8,12.7c-11,8.2-21.8,16.6-32.6,24.9
							c-0.3,0.2-0.6,0.5-1.1,0.8c-2.5-4.7-6.2-8.2-10.9-11c0.6-0.3,0.9-0.5,1.3-0.7c2.6-1,5.3-2.1,7.9-3.1c1.2-0.5,2.4-0.8,3.6-1.3
							c5-1.9,9.4-4.7,12.9-8.7c1.8-2,3.6-4.1,5.4-6.2c3.8-4.2,7.4-8.5,11.4-12.6c5.9-6,12.8-10.5,21-12.8c4.6-1.3,9.3-1.8,14-2.1
							c12.7-0.7,24.9,1.6,36.9,5.4c5.1,1.6,10.3,3,15.1,5.4c1.4,0.7,2.7,1.5,4,2.2C361.1,216.5,361.4,216.8,361.9,217.2z"/>
						<path class="st32" d="M360.6,220.6c-0.6,0.2-1.1,0.4-1.7,0.6c-4.2,1.1-8.4,1.8-12.7,2.2c-10.8,1-21.4,2.9-31.7,6.3
							c-9.7,3.1-18.1,8.3-25.6,15.1c-4.1,3.8-8.2,7.7-12.2,11.6c-5.6,5.5-11.6,10.7-17.9,15.3c-3.3,2.4-6.5,5-9.9,7.6
							c-3.2-1.8-5.9-4.2-7.1-7.9c-0.7-2.1-1.4-4.3-2.1-6.5c0.1-0.1,0.2-0.3,0.4-0.4c10.2-7.9,20.4-15.8,30.7-23.6
							c6.1-4.6,12.5-8.8,18.9-13.1c5.6-3.8,11.8-6.5,18.5-7.7c4.3-0.8,8.7-1.1,13-0.9c3.5,0.2,7,0.3,10.5,0.5
							c6.2,0.2,12.3,0.5,18.5,0.7c3.1,0.1,6.2,0,9.3,0c0.3,0,0.7,0,1,0C360.5,220.4,360.6,220.5,360.6,220.6z"/>
					</g>
					<g>
						<path class="st32" d="M81,209.6c0.7-0.6,1.4-1.3,2.2-1.9c8.1-6.3,16.5-12.3,25.3-17.6c4.9-3,10.1-5.4,15.7-6.7
							c3.3-0.8,6.7-1.1,10.1-0.3c4.4,1,7.9,3.5,10.7,6.8c1.4,1.7,2.6,3.5,3.8,5.4c2.5,4,4.9,8.1,7.4,12.1c0.6,0.9,1.2,1.8,1.7,2.6
							c-2.4,3-4.8,6-7.4,9.2c-0.1-0.2-0.3-0.6-0.6-0.9c-3.7-4.3-7.8-8-12.3-11.4c-5.4-4-11.6-5.8-18.3-6.2c-8-0.5-15.7,0.9-23.2,3.6
							c-4.6,1.6-9.2,3.3-13.8,5c-0.5,0.2-0.9,0.3-1.4,0.5C81.1,209.7,81,209.7,81,209.6z"/>
						<path class="st32" d="M149,222.5c-1.4,3.9-2.9,7.7-4.4,11.8c-0.5-0.6-0.8-0.9-1-1.2c-3.8-4.6-7.9-8.8-12.6-12.4
							c-5.8-4.6-12.4-7.2-19.6-8.3c-7.7-1.2-15.4-1.2-23.1-1.1c-0.4,0-0.8,0-1.5,0c0.5-0.3,0.8-0.4,1.1-0.6
							c5.9-2.2,11.7-4.4,17.9-5.6c7-1.4,14.1-1.5,21.1,0.3c2.6,0.7,5,1.8,7.3,3.3c5.6,3.7,10.5,8.3,14.7,13.5
							C148.9,222.3,149,222.4,149,222.5z"/>
					</g>
				</g>
				<g>
					<path class="st32" d="M201.8,284.2c-2.9-3.5-5.8-7.1-8.7-10.7c2.1-2.9,2.9-6.2,3.3-9.8c3.4,1,6.4,2.1,9.3,3.8
						c0.3,0.2,0.6,0.6,0.6,0.9c0.1,5.6-1.2,10.9-4.2,15.7C202.1,284.1,202,284.1,201.8,284.2z"/>
					<path class="st32" d="M212.1,291.1c-2.5-1.6-5.4-2.3-7.7-4.4c3.2-4.9,4.8-10.4,5.2-16.2C216.9,276.3,217.9,284.5,212.1,291.1z"
						/>
					<path class="st32" d="M179.8,262.1c4.7-1,9-0.3,13.2,0.6c0.4,2.1-0.5,5.8-2.2,8.5c-1.7-1.6-3.4-3.2-5.2-4.7
						C183.8,265.1,181.9,263.7,179.8,262.1z"/>
				</g>
			</g>
			<path class="st2" d="M155.3,238.7c1.9,0,3.8,1.7,4,3.6c0.1,1.3-0.9,2.5-2.3,2.9c-1.4,0.3-2.9-0.3-3.5-1.6
				c-0.4-0.8-0.6-1.7-0.6-2.5C152.8,239.4,153.5,238.7,155.3,238.7z"/>
		</g>
		<g>
			<path class="st42" d="M203.2,213.3c0.4,0,0.7,0,1.1,0c1.6-0.1,2.2-0.9,2-2.4c-0.2-1.1-0.5-2.1-0.6-3.2c-0.2-1.6,0.3-3,1.3-4.3
				c1.5-1.8,3.5-2,5.2-0.4c0.7,0.7,1.3,1.6,1.9,2.4c0.5,0.7,0.9,1.5,1.5,2.2c0.9,1.1,2.1,1.2,3.1,0.1c0.4-0.4,0.7-0.9,1-1.3
				c1-1.3,2-2.6,3.1-3.8c0.9-0.9,1.9-1.6,3-2.1c3.1-1.5,6.6,0.7,6.8,4.1c0.1,1.3-0.2,2.5-0.8,3.6c-0.6,1.1-1.2,2.3-1.9,3.4
				c-0.3,0.5-0.6,1-0.8,1.5c-0.6,1.4-0.1,2.5,1.3,3.2c0.7,0.3,1.4,0.4,2,0.7c2.7,1,4.2,4,3.5,6.6c-0.8,2.7-3.5,4.5-6.3,3.9
				c-1.2-0.2-2.3-0.6-3.4-1c-0.6-0.2-1.1-0.5-1.7-0.7c-1.5-0.4-2.6,0.3-2.7,1.9c0,0.3,0,0.6,0.1,0.9c0,0.4,0.1,0.8,0.2,1.2
				c0.3,2.2,0.2,4.4-1.6,6c-2,1.9-4.4,3-7.2,2.6c-3.4-0.4-6.1-2-7.9-5c-0.9-1.5-1.2-3.2-1.3-4.9c-0.1-2-0.4-2.4-2.3-2.9
				c-1.7-0.4-3.3-0.9-4.5-2.2c-3.1-3.2-2.3-7.7,1.8-9.5C200.5,213.4,201.4,213.2,203.2,213.3z"/>
			<path class="st42" d="M377.9,174.2c-0.3-2.4-0.9-4.8-2.2-6.9c-2.4-3.9-5.9-5.9-10.5-5.7c-0.8,0-1.6,0.2-2.5,0.3
				c0-0.4-0.1-0.7-0.1-1.1c-0.5-3.9-2.6-6.5-6.2-7.8c-2.2-0.8-4.3-0.5-6.2,1c-0.2,0.1-0.4,0.3-0.6,0.4c-0.1-0.4-0.1-0.7-0.2-1
				c-0.3-1.7-0.8-3.4-1.9-4.9c-2.5-3.6-7-4.1-10.3-1.2c-1.4,1.3-2.4,2.8-2.9,4.7c-0.6,2.2-0.9,4.4-0.6,6.7c-0.8,0.1-1.5,0.2-2.2,0.3
				c-5.4,1.2-9.6,5.8-10.4,11.3c-0.4,3.1,0.2,5.8,2,8.4c1.8,2.7,4.4,3.8,7.5,4c4,0.2,8.1,0.4,12.1,0.5c2.8,0.1,5.6,0,8.3-0.1
				c5.5-0.2,11.1-0.5,16.6-0.8c1.7-0.1,3.5-0.3,5.2-0.6c1.2-0.2,2.4-0.6,3.4-1.4c1.2-0.9,1.9-2.1,1.9-3.6
				C378,175.8,378,175,377.9,174.2z"/>
		</g>
	</g>
</g>
</svg>
